<svg width="12" height="12" viewBox="0 0 12 12" fill="none" xmlns="http://www.w3.org/2000/svg">
<path d="M4.24052 0.195265C4.44393 0.398679 4.49393 0.70963 4.36452 0.966554C4.02712 1.63646 3.83681 2.39356 3.83681 3.19704C3.83681 5.93977 6.06023 8.1632 8.80296 8.1632C9.60644 8.1632 10.3635 7.97289 11.0335 7.63548C11.2904 7.50608 11.6013 7.55608 11.8047 7.75949C12.0082 7.9629 12.0581 8.27385 11.9287 8.53078C10.8931 10.5871 8.76188 12 6.29949 12C2.82038 12 0 9.17963 0 5.70052C0 3.23812 1.41294 1.10693 3.46923 0.0712588C3.72615 -0.058143 4.0371 -0.00814895 4.24052 0.195265ZM2.5478 2.4464C1.79092 3.31827 1.33333 4.4562 1.33333 5.70052C1.33333 8.44325 3.55676 10.6667 6.29949 10.6667C7.5438 10.6667 8.68173 10.2091 9.55361 9.45221C9.30737 9.48148 9.05686 9.49653 8.80296 9.49653C5.32385 9.49653 2.50348 6.67615 2.50348 3.19704C2.50348 2.94314 2.51853 2.69264 2.5478 2.4464Z" fill="black"/>
</svg>
