<svg width="14" height="14" viewBox="0 0 14 14" fill="none" xmlns="http://www.w3.org/2000/svg">
<path d="M7 0.333336C7.36819 0.333336 7.66667 0.631813 7.66667 1V1.66667C7.66667 2.03486 7.36819 2.33334 7 2.33334C6.63181 2.33334 6.33334 2.03486 6.33334 1.66667V1C6.33334 0.631813 6.63181 0.333336 7 0.333336ZM11.7141 2.28595C11.9744 2.5463 11.9744 2.96841 11.7141 3.22876L11.2427 3.70017C10.9823 3.96052 10.5602 3.96052 10.2999 3.70017C10.0395 3.43982 10.0395 3.01771 10.2999 2.75736L10.7713 2.28595C11.0316 2.0256 11.4537 2.0256 11.7141 2.28595ZM2.28595 2.28595C2.5463 2.0256 2.96841 2.0256 3.22876 2.28595L3.70017 2.75736C3.96052 3.01771 3.96052 3.43982 3.70017 3.70017C3.43982 3.96052 3.01771 3.96052 2.75736 3.70017L2.28595 3.22876C2.0256 2.96841 2.0256 2.5463 2.28595 2.28595ZM7 4.33334C5.52724 4.33334 4.33334 5.52724 4.33334 7C4.33334 8.47276 5.52724 9.66667 7 9.66667C8.47276 9.66667 9.66667 8.47276 9.66667 7C9.66667 5.52724 8.47276 4.33334 7 4.33334ZM3 7C3 4.79086 4.79086 3 7 3C9.20914 3 11 4.79086 11 7C11 9.20914 9.20914 11 7 11C4.79086 11 3 9.20914 3 7ZM0.333336 7C0.333336 6.63181 0.631813 6.33334 1 6.33334H1.66667C2.03486 6.33334 2.33334 6.63181 2.33334 7C2.33334 7.36819 2.03486 7.66667 1.66667 7.66667H1C0.631813 7.66667 0.333336 7.36819 0.333336 7ZM11.6667 7C11.6667 6.63181 11.9651 6.33334 12.3333 6.33334H13C13.3682 6.33334 13.6667 6.63181 13.6667 7C13.6667 7.36819 13.3682 7.66667 13 7.66667H12.3333C11.9651 7.66667 11.6667 7.36819 11.6667 7ZM2.75736 10.2998C3.01771 10.0395 3.43982 10.0395 3.70017 10.2998C3.96052 10.5602 3.96052 10.9823 3.70017 11.2426L3.22876 11.714C2.96841 11.9744 2.5463 11.9744 2.28595 11.714C2.0256 11.4537 2.0256 11.0316 2.28595 10.7712L2.75736 10.2998ZM10.2999 11.2426C10.0395 10.9823 10.0395 10.5602 10.2999 10.2998C10.5602 10.0395 10.9823 10.0395 11.2427 10.2998L11.7141 10.7712C11.9744 11.0316 11.9744 11.4537 11.7141 11.714C11.4537 11.9744 11.0316 11.9744 10.7713 11.714L10.2999 11.2426ZM7 11.6667C7.36819 11.6667 7.66667 11.9651 7.66667 12.3333V13C7.66667 13.3682 7.36819 13.6667 7 13.6667C6.63181 13.6667 6.33334 13.3682 6.33334 13V12.3333C6.33334 11.9651 6.63181 11.6667 7 11.6667Z" fill="black"/>
</svg>
